<svg xmlns="http://www.w3.org/2000/svg" viewBox="0 0 900 900" width="900" height="900" role="presentation" aria-hidden="true"><defs>
<linearGradient id="g1" x1="0" y1="0" x2="0" y2="1"><stop offset="0" stop-color="#2f6f62"/><stop offset="0.55" stop-color="#6e9a8b"/><stop offset="1" stop-color="#bfd3c8"/></linearGradient>
<linearGradient id="g2" x1="0" y1="0" x2="0" y2="1"><stop offset="0" stop-color="#185c53"/><stop offset="0.6" stop-color="#4e8576"/><stop offset="1" stop-color="#a9c6ba"/></linearGradient>
<filter id="soft" x="-10%" y="-10%" width="120%" height="120%"><feGaussianBlur stdDeviation="0.7"/></filter>
<filter id="haze" x="-20%" y="-20%" width="140%" height="140%"><feGaussianBlur stdDeviation="3.2"/></filter>
</defs><g filter="url(#haze)" opacity="0.28" fill="url(#g1)"><path d="M862.4,-30.0 L865.6,-20.9 L868.3,-11.6 L870.5,-2.1 L872.3,7.4 L873.7,17.0 L874.6,26.7 L875.3,36.4 L875.4,46.2 L875.3,55.9 L874.7,65.6 L874.1,75.3 L872.9,85.0 L871.5,94.6 L869.9,104.2 L868.1,113.8 L866.0,123.3 L863.5,132.7 L860.9,142.0 L857.8,151.2 L854.6,160.4 L851.1,169.4 L847.2,178.3 L843.2,187.1 L838.9,195.7 L834.3,204.2 L829.7,212.7 L824.8,221.0 L819.9,229.2 L819.6,229.1 L824.2,220.7 L828.4,212.0 L832.3,203.3 L835.9,194.4 L839.2,185.5 L842.4,176.5 L845.3,167.4 L848.0,158.3 L850.6,149.2 L852.8,139.9 L855.0,130.7 L856.9,121.4 L858.6,112.1 L860.2,102.8 L861.4,93.4 L862.4,84.0 L863.0,74.6 L863.8,65.1 L864.0,55.7 L864.3,46.3 L864.2,36.8 L864.3,27.3 L864.0,17.9 L863.7,8.4 L863.3,-1.1 L862.9,-10.7 L862.4,-20.3 L862.1,-30.0 Z"/><path d="M811.6,-30.0 L812.5,-19.5 L812.9,-8.9 L812.8,1.7 L812.4,12.3 L811.5,22.8 L810.3,33.4 L808.9,43.9 L807.0,54.3 L804.7,64.7 L802.1,75.0 L799.3,85.2 L796.0,95.3 L792.6,105.4 L789.0,115.4 L785.1,125.2 L781.0,135.0 L776.6,144.6 L771.9,154.1 L767.0,163.5 L761.7,172.7 L756.3,181.8 L750.6,190.7 L744.6,199.4 L738.5,208.0 L732.2,216.4 L725.6,224.7 L718.9,232.8 L712.2,240.9 L711.9,240.7 L718.5,232.5 L724.7,224.1 L730.7,215.4 L736.4,206.7 L742.0,197.7 L747.2,188.7 L752.3,179.5 L757.2,170.3 L761.8,160.9 L766.3,151.5 L770.5,142.0 L774.6,132.4 L778.4,122.7 L782.0,112.9 L785.4,103.0 L788.5,93.1 L791.3,83.1 L793.9,73.0 L796.3,62.9 L798.5,52.7 L800.6,42.5 L802.7,32.3 L804.4,22.0 L805.9,11.7 L807.4,1.3 L808.8,-9.1 L810.1,-19.5 L811.3,-30.0 Z"/><path d="M864.9,-30.1 L870.3,-20.3 L875.2,-10.3 L879.8,-0.1 L884.0,10.2 L887.9,20.7 L891.6,31.2 L894.8,41.9 L897.9,52.6 L900.7,63.4 L903.0,74.4 L905.1,85.3 L907.1,96.3 L909.0,107.3 L910.5,118.4 L911.8,129.4 L912.9,140.5 L913.7,151.7 L914.4,162.8 L914.8,173.9 L914.9,185.1 L914.7,196.2 L914.4,207.3 L913.8,218.5 L912.9,229.5 L911.9,240.6 L910.7,251.7 L909.3,262.7 L907.9,273.7 L907.6,273.6 L908.8,262.6 L909.5,251.6 L910.0,240.5 L910.3,229.4 L910.4,218.4 L910.2,207.3 L909.9,196.3 L909.4,185.3 L908.6,174.3 L907.8,163.3 L906.8,152.3 L905.6,141.4 L904.2,130.4 L902.6,119.5 L900.9,108.7 L898.9,97.9 L896.8,87.1 L894.4,76.3 L891.7,65.7 L889.1,55.0 L886.4,44.3 L883.5,33.7 L880.6,23.1 L877.4,12.5 L874.3,1.9 L871.1,-8.7 L867.9,-19.3 L864.6,-29.9 Z"/><path d="M843.7,-30.0 L846.2,-24.9 L848.5,-19.7 L850.6,-14.4 L852.5,-9.0 L854.2,-3.6 L855.5,2.0 L857.0,7.5 L858.0,13.1 L858.9,18.7 L859.8,24.3 L860.6,30.0 L861.1,35.7 L861.6,41.4 L862.0,47.0 L862.3,52.7 L862.6,58.4 L862.6,64.1 L862.7,69.8 L862.4,75.5 L862.2,81.2 L861.7,86.8 L861.2,92.5 L860.5,98.1 L859.8,103.8 L859.0,109.4 L858.1,115.0 L857.1,120.5 L856.3,126.1 L856.0,126.1 L856.7,120.5 L857.1,114.9 L857.5,109.2 L857.6,103.6 L857.8,98.0 L857.8,92.3 L857.7,86.7 L857.6,81.1 L857.5,75.5 L857.1,69.9 L856.9,64.3 L856.4,58.8 L856.1,53.2 L855.6,47.6 L855.0,42.1 L854.3,36.5 L853.5,31.0 L852.7,25.5 L851.9,19.9 L850.9,14.4 L849.8,9.0 L849.0,3.4 L847.9,-2.1 L846.9,-7.6 L846.0,-13.1 L845.1,-18.7 L844.2,-24.3 L843.4,-30.0 Z"/><path d="M768.7,-30.0 L771.3,-18.9 L773.3,-7.6 L774.9,3.8 L776.2,15.2 L777.1,26.6 L777.6,38.1 L777.5,49.6 L777.3,61.0 L776.7,72.5 L776.0,84.0 L774.7,95.4 L773.3,106.8 L771.6,118.1 L769.6,129.5 L767.3,140.7 L764.8,151.9 L762.2,163.1 L759.1,174.1 L755.8,185.1 L752.2,196.0 L748.4,206.8 L744.3,217.5 L739.9,228.0 L735.3,238.5 L730.5,248.9 L725.4,259.1 L720.2,269.3 L715.0,279.4 L714.7,279.2 L719.8,269.0 L724.4,258.6 L728.8,248.2 L732.9,237.5 L736.8,226.9 L740.4,216.1 L743.8,205.3 L747.1,194.4 L750.1,183.5 L752.8,172.5 L755.4,161.5 L757.9,150.5 L760.1,139.4 L761.9,128.2 L763.6,117.0 L765.0,105.8 L766.3,94.6 L767.1,83.3 L768.1,72.1 L768.6,60.8 L769.1,49.5 L769.2,38.2 L769.3,26.9 L769.4,15.6 L769.3,4.2 L769.0,-7.1 L768.7,-18.5 L768.4,-30.0 Z"/><path d="M778.1,-30.0 L775.3,-18.6 L772.6,-7.3 L770.0,4.0 L767.5,15.4 L765.1,26.7 L762.9,38.1 L760.7,49.5 L758.7,60.9 L756.7,72.4 L754.9,83.8 L753.3,95.3 L751.9,106.8 L750.6,118.3 L749.5,129.9 L748.7,141.5 L747.9,153.0 L747.4,164.6 L747.1,176.2 L746.8,187.8 L746.8,199.5 L746.8,211.1 L747.1,222.7 L747.6,234.3 L748.2,245.9 L749.0,257.5 L750.1,269.1 L751.3,280.7 L752.9,292.2 L752.6,292.2 L751.0,280.7 L749.4,269.2 L747.9,257.6 L746.7,246.0 L745.5,234.4 L744.7,222.8 L744.0,211.2 L743.4,199.5 L743.2,187.8 L743.0,176.2 L743.2,164.5 L743.6,152.8 L744.1,141.1 L744.8,129.5 L745.7,117.8 L746.8,106.2 L748.2,94.6 L749.7,83.0 L751.4,71.5 L753.2,59.9 L755.4,48.5 L757.9,37.0 L760.6,25.7 L763.5,14.4 L766.6,3.1 L770.1,-8.0 L773.8,-19.1 L777.8,-30.0 Z"/><path d="M742.4,-40.0 L744.8,-32.2 L746.8,-24.2 L748.4,-16.1 L749.6,-8.0 L750.4,0.2 L750.8,8.5 L751.1,16.7 L750.7,25.0 L750.2,33.2 L749.3,41.4 L748.3,49.6 L746.9,57.8 L745.3,65.9 L743.5,73.9 L741.4,81.9 L739.2,89.9 L736.6,97.7 L733.8,105.4 L730.7,113.1 L727.5,120.6 L723.9,128.0 L720.1,135.3 L716.1,142.5 L711.9,149.5 L707.5,156.4 L702.9,163.2 L698.2,169.8 L693.4,176.4 L693.2,176.3 L697.7,169.5 L701.9,162.6 L705.8,155.4 L709.6,148.2 L713.0,140.9 L716.3,133.5 L719.4,126.1 L722.3,118.5 L725.0,111.0 L727.5,103.3 L729.9,95.6 L732.0,87.9 L734.1,80.1 L735.8,72.3 L737.3,64.4 L738.6,56.5 L739.7,48.6 L740.7,40.6 L741.3,32.6 L741.9,24.7 L742.1,16.6 L742.5,8.6 L742.6,0.6 L742.7,-7.4 L742.6,-15.5 L742.5,-23.6 L742.3,-31.8 L742.1,-40.0 Z"/></g><g filter="url(#soft)" opacity="0.36" fill="url(#g1)"><path d="M802.4,-30.0 L804.1,-22.1 L805.6,-14.1 L806.8,-6.0 L807.8,2.1 L808.5,10.2 L808.8,18.3 L809.1,26.5 L809.1,34.6 L808.7,42.8 L808.3,50.9 L807.8,59.1 L807.1,67.2 L806.2,75.3 L805.1,83.4 L804.0,91.4 L802.5,99.5 L801.0,107.5 L799.4,115.4 L797.6,123.4 L795.5,131.3 L793.4,139.1 L791.0,146.9 L788.5,154.6 L785.9,162.3 L783.1,169.9 L780.2,177.5 L777.2,185.0 L774.3,192.6 L774.0,192.5 L776.9,184.9 L779.4,177.2 L781.7,169.5 L783.9,161.7 L785.9,153.9 L787.8,146.0 L789.6,138.2 L791.3,130.3 L792.8,122.4 L794.2,114.5 L795.7,106.5 L796.9,98.6 L797.9,90.6 L798.9,82.6 L799.8,74.7 L800.4,66.6 L801.0,58.6 L801.5,50.6 L801.9,42.6 L802.0,34.6 L802.2,26.5 L802.3,18.5 L802.3,10.5 L802.3,2.4 L802.3,-5.7 L802.2,-13.7 L802.2,-21.8 L802.1,-30.0 Z"/><path d="M875.5,-30.0 L874.2,-21.1 L873.0,-12.3 L871.8,-3.5 L870.7,5.3 L869.7,14.0 L868.8,22.8 L868.0,31.6 L867.5,40.4 L867.1,49.2 L866.6,57.9 L866.5,66.7 L866.4,75.5 L866.7,84.4 L867.2,93.1 L867.8,101.9 L868.8,110.7 L869.6,119.5 L870.9,128.2 L872.4,136.9 L874.0,145.6 L875.8,154.3 L877.7,162.9 L879.9,171.5 L882.2,180.0 L884.8,188.5 L887.6,196.9 L890.6,205.3 L894.0,213.5 L893.7,213.6 L890.2,205.5 L886.6,197.3 L883.2,189.0 L880.0,180.7 L877.0,172.3 L874.2,163.8 L871.7,155.2 L869.3,146.6 L867.2,137.9 L865.5,129.1 L863.8,120.3 L862.3,111.4 L861.3,102.5 L860.3,93.6 L859.7,84.6 L859.2,75.7 L858.9,66.7 L858.9,57.7 L859.1,48.7 L859.7,39.7 L860.6,30.8 L861.7,21.9 L863.1,13.0 L864.8,4.2 L866.9,-4.5 L869.3,-13.1 L872.0,-21.7 L875.2,-30.0 Z"/><path d="M858.4,-29.9 L857.3,-23.9 L856.1,-18.1 L854.7,-12.3 L853.4,-6.5 L851.9,-0.8 L850.5,4.9 L849.2,10.6 L847.7,16.3 L846.0,21.9 L844.8,27.6 L843.4,33.3 L842.1,39.0 L840.8,44.7 L839.7,50.5 L838.6,56.3 L837.7,62.1 L836.9,67.9 L836.2,73.7 L835.5,79.6 L834.7,85.4 L834.1,91.3 L833.5,97.2 L833.1,103.1 L832.8,109.0 L832.5,114.9 L832.4,120.9 L832.4,126.8 L832.8,132.7 L832.5,132.8 L831.8,126.8 L831.1,120.9 L830.4,115.0 L829.8,109.0 L829.2,103.1 L828.9,97.1 L828.5,91.1 L828.5,85.1 L828.4,79.0 L828.5,73.0 L828.9,67.0 L829.5,61.0 L830.1,55.0 L830.8,49.0 L831.7,43.1 L832.5,37.1 L833.6,31.1 L834.8,25.2 L836.4,19.4 L837.7,13.5 L839.4,7.7 L841.4,2.0 L843.6,-3.6 L846.0,-9.2 L848.6,-14.6 L851.4,-19.9 L854.6,-25.1 L858.1,-30.1 Z"/><path d="M833.1,-30.0 L833.9,-19.4 L834.7,-8.9 L835.6,1.6 L836.6,12.1 L837.7,22.6 L838.7,33.0 L840.1,43.4 L841.6,53.8 L843.2,64.2 L844.7,74.5 L846.6,84.9 L848.8,95.1 L851.1,105.4 L853.5,115.6 L856.3,125.7 L859.2,135.8 L862.2,145.9 L865.4,155.9 L868.8,165.8 L872.4,175.7 L876.2,185.5 L880.1,195.3 L884.2,205.0 L888.5,214.6 L893.0,224.2 L897.7,233.6 L902.6,243.0 L907.9,252.1 L907.6,252.2 L902.2,243.2 L896.8,234.1 L891.6,224.9 L886.5,215.6 L881.6,206.2 L876.8,196.7 L872.3,187.1 L868.1,177.4 L864.0,167.6 L860.2,157.6 L856.5,147.7 L853.1,137.6 L850.0,127.5 L847.1,117.2 L844.4,106.9 L841.9,96.6 L839.6,86.2 L837.6,75.8 L835.5,65.3 L834.0,54.8 L832.8,44.2 L831.9,33.6 L831.1,23.0 L830.7,12.4 L830.7,1.8 L831.0,-8.9 L831.7,-19.4 L832.8,-30.0 Z"/><path d="M847.6,-30.0 L851.0,-21.0 L853.9,-11.8 L856.4,-2.5 L858.6,6.9 L860.5,16.3 L862.2,25.8 L863.3,35.4 L864.5,45.0 L864.9,54.6 L865.5,64.3 L865.8,73.9 L865.8,83.6 L865.7,93.2 L865.4,102.8 L864.8,112.5 L864.2,122.1 L863.2,131.7 L862.2,141.2 L860.7,150.8 L859.2,160.3 L857.4,169.7 L855.4,179.1 L853.2,188.5 L850.8,197.8 L848.3,207.0 L845.6,216.2 L842.8,225.4 L840.0,234.5 L839.7,234.5 L842.2,225.2 L844.4,215.9 L846.3,206.6 L848.1,197.2 L849.6,187.8 L851.0,178.4 L852.2,168.9 L853.3,159.5 L854.3,150.0 L854.9,140.6 L855.8,131.1 L856.2,121.6 L856.7,112.2 L856.9,102.7 L856.9,93.2 L856.8,83.7 L856.5,74.2 L856.1,64.8 L855.6,55.3 L854.6,45.9 L854.0,36.5 L853.0,27.0 L852.2,17.6 L851.2,8.1 L850.3,-1.3 L849.2,-10.8 L848.2,-20.4 L847.4,-30.0 Z"/><path d="M803.4,-29.9 L801.4,-20.3 L799.4,-10.8 L797.2,-1.3 L795.1,8.2 L793.0,17.6 L790.8,27.0 L788.8,36.4 L786.8,45.8 L785.1,55.3 L783.0,64.7 L781.3,74.2 L779.9,83.8 L778.4,93.3 L777.2,102.8 L776.0,112.4 L775.1,122.0 L774.3,131.6 L773.6,141.3 L773.3,150.9 L772.7,160.6 L772.6,170.3 L772.4,179.9 L772.4,189.6 L772.5,199.3 L772.9,209.0 L773.4,218.7 L774.2,228.4 L775.4,238.1 L775.1,238.1 L773.6,228.5 L772.0,218.9 L770.6,209.2 L769.3,199.6 L768.2,189.8 L767.2,180.1 L766.4,170.3 L766.0,160.5 L765.6,150.7 L765.7,140.9 L765.8,131.1 L766.2,121.3 L766.8,111.5 L767.4,101.7 L768.4,92.0 L769.5,82.2 L770.9,72.5 L772.5,62.8 L773.9,53.0 L776.2,43.5 L778.4,33.9 L781.0,24.4 L783.7,15.0 L786.9,5.7 L790.4,-3.5 L794.2,-12.5 L798.4,-21.4 L803.1,-30.1 Z"/><path d="M672.4,-40.0 L674.6,-29.3 L676.4,-18.6 L677.9,-7.8 L679.1,3.0 L680.2,13.8 L680.8,24.6 L681.2,35.5 L681.6,46.3 L681.7,57.2 L681.8,68.1 L681.6,78.9 L681.2,89.8 L680.7,100.6 L680.2,111.5 L679.5,122.3 L678.8,133.2 L677.8,144.0 L676.9,154.8 L675.6,165.6 L674.4,176.4 L672.8,187.1 L671.3,197.8 L669.5,208.6 L667.7,219.2 L665.8,229.9 L663.8,240.6 L661.7,251.2 L659.8,261.8 L659.5,261.8 L661.2,251.1 L662.5,240.4 L663.7,229.6 L664.8,218.9 L665.8,208.1 L666.6,197.3 L667.5,186.6 L668.1,175.8 L668.9,165.0 L669.4,154.2 L670.2,143.5 L670.5,132.7 L671.0,121.9 L671.3,111.2 L671.6,100.4 L671.7,89.6 L671.8,78.8 L671.7,68.1 L671.8,57.3 L671.7,46.5 L671.7,35.7 L671.5,25.0 L671.4,14.2 L671.4,3.4 L671.4,-7.4 L671.5,-18.2 L671.7,-29.1 L672.1,-40.0 Z"/><path d="M747.8,-40.0 L748.7,-28.5 L749.7,-17.1 L751.0,-5.7 L752.4,5.6 L754.0,16.9 L755.9,28.1 L757.9,39.4 L760.2,50.5 L762.7,61.6 L765.6,72.6 L768.7,83.6 L771.9,94.5 L775.6,105.3 L779.5,116.0 L783.7,126.5 L788.2,137.0 L793.0,147.3 L798.0,157.6 L803.2,167.7 L808.8,177.7 L814.6,187.5 L820.6,197.3 L826.9,206.8 L833.4,216.2 L840.2,225.4 L847.3,234.4 L854.7,243.2 L862.4,251.7 L862.2,251.9 L854.4,243.5 L846.6,235.0 L839.0,226.3 L831.7,217.5 L824.6,208.4 L817.8,199.1 L811.2,189.6 L804.9,179.9 L799.0,170.0 L793.2,160.0 L787.8,149.8 L782.7,139.4 L778.0,128.9 L773.5,118.2 L769.3,107.4 L765.5,96.5 L761.8,85.5 L758.6,74.4 L755.8,63.2 L753.2,51.9 L751.1,40.5 L749.2,29.1 L747.9,17.6 L746.9,6.1 L746.3,-5.5 L746.2,-17.0 L746.6,-28.5 L747.5,-40.0 Z"/><path d="M742.5,-40.0 L743.5,-34.0 L744.4,-28.1 L745.1,-22.3 L745.8,-16.5 L746.4,-10.7 L746.6,-4.9 L747.3,0.9 L747.7,6.6 L748.2,12.4 L748.4,18.2 L749.0,23.9 L749.5,29.7 L750.2,35.4 L750.9,41.2 L751.7,46.9 L752.7,52.6 L753.8,58.3 L754.8,64.0 L755.9,69.7 L756.9,75.5 L758.1,81.2 L759.4,86.9 L760.7,92.6 L762.1,98.3 L763.6,103.9 L765.3,109.6 L767.0,115.2 L769.1,120.6 L768.8,120.8 L766.4,115.4 L763.9,110.1 L761.4,104.7 L759.0,99.3 L756.6,93.9 L754.4,88.4 L752.2,82.8 L750.3,77.2 L748.3,71.6 L746.6,65.9 L745.0,60.2 L743.7,54.4 L742.5,48.5 L741.2,42.7 L740.1,36.8 L739.2,31.0 L738.3,25.1 L737.6,19.1 L736.8,13.2 L736.5,7.2 L736.3,1.3 L736.5,-4.7 L736.5,-10.6 L737.1,-16.6 L737.9,-22.5 L738.9,-28.4 L740.4,-34.2 L742.2,-40.0 Z"/><path d="M756.3,-40.1 L760.6,-31.5 L764.4,-22.7 L767.9,-13.8 L771.2,-4.7 L774.1,4.4 L776.8,13.6 L779.2,23.0 L781.2,32.4 L783.1,41.8 L784.7,51.3 L786.1,60.8 L787.2,70.3 L788.2,79.9 L789.0,89.4 L789.6,99.0 L790.0,108.6 L790.3,118.2 L790.4,127.8 L790.3,137.4 L789.9,147.0 L789.2,156.5 L788.4,166.1 L787.4,175.6 L786.2,185.1 L784.8,194.5 L783.3,204.0 L781.7,213.4 L780.1,222.8 L779.8,222.7 L781.2,213.3 L782.2,203.8 L783.0,194.4 L783.6,184.9 L784.0,175.4 L784.2,165.9 L784.3,156.4 L784.2,146.9 L784.0,137.4 L783.8,128.0 L783.4,118.5 L782.8,109.1 L782.0,99.6 L781.1,90.2 L780.0,80.8 L778.8,71.5 L777.3,62.1 L775.7,52.8 L774.0,43.5 L772.3,34.2 L770.4,25.0 L768.4,15.8 L766.5,6.5 L764.5,-2.8 L762.3,-12.0 L760.2,-21.3 L758.0,-30.6 L756.0,-39.9 Z"/></g><g filter="url(#soft)" opacity="0.52" fill="url(#g2)"><path d="M856.1,-30.0 L857.4,-24.4 L858.5,-18.7 L859.4,-13.0 L860.1,-7.2 L860.7,-1.4 L861.1,4.3 L861.4,10.1 L861.6,15.9 L861.5,21.7 L861.4,27.5 L861.3,33.3 L860.9,39.1 L860.5,44.9 L860.0,50.6 L859.5,56.4 L858.8,62.2 L857.9,67.9 L857.2,73.6 L856.1,79.3 L855.1,85.0 L853.9,90.7 L852.6,96.3 L851.2,101.9 L849.7,107.5 L848.1,113.1 L846.5,118.6 L844.8,124.1 L843.2,129.7 L842.9,129.6 L844.5,124.0 L845.9,118.5 L847.1,112.8 L848.3,107.2 L849.3,101.5 L850.3,95.9 L851.2,90.2 L852.0,84.5 L852.9,78.8 L853.5,73.1 L854.2,67.5 L854.7,61.7 L855.3,56.0 L855.7,50.3 L856.1,44.6 L856.3,38.9 L856.5,33.2 L856.6,27.4 L856.7,21.7 L856.7,16.0 L856.6,10.3 L856.6,4.5 L856.5,-1.2 L856.3,-6.9 L856.2,-12.7 L856.1,-18.4 L856.0,-24.2 L855.8,-30.0 Z"/><path d="M834.2,-30.0 L832.8,-18.3 L831.2,-6.6 L829.6,5.0 L828.0,16.7 L826.3,28.3 L824.6,39.9 L822.9,51.4 L821.1,63.0 L819.5,74.6 L817.9,86.2 L816.5,97.8 L815.1,109.5 L813.8,121.1 L812.6,132.7 L811.4,144.4 L810.4,156.1 L809.4,167.7 L808.6,179.4 L807.8,191.1 L807.2,202.8 L806.6,214.5 L806.0,226.3 L805.5,238.0 L805.2,249.7 L805.0,261.5 L804.8,273.2 L804.9,284.9 L805.3,296.7 L805.0,296.7 L804.4,285.0 L803.7,273.2 L803.1,261.5 L802.7,249.7 L802.3,238.0 L802.0,226.2 L801.8,214.4 L801.9,202.6 L802.1,190.9 L802.4,179.1 L802.9,167.3 L803.4,155.5 L804.2,143.8 L804.9,132.0 L805.9,120.3 L807.0,108.5 L808.3,96.8 L809.7,85.1 L811.2,73.4 L812.9,61.8 L814.5,50.1 L816.6,38.5 L818.9,26.9 L821.4,15.4 L824.1,3.9 L827.1,-7.5 L830.4,-18.8 L834.0,-30.0 Z"/><path d="M705.8,-40.0 L703.9,-28.4 L701.8,-17.0 L699.7,-5.5 L697.7,5.9 L695.8,17.3 L694.0,28.6 L692.2,40.0 L690.7,51.5 L689.2,62.9 L687.9,74.3 L686.5,85.7 L685.6,97.2 L684.8,108.7 L684.4,120.2 L684.0,131.8 L684.0,143.3 L684.1,154.8 L684.3,166.4 L684.9,177.9 L685.5,189.4 L686.3,201.0 L687.4,212.5 L688.6,224.0 L690.1,235.5 L691.8,247.0 L693.8,258.4 L696.0,269.8 L698.7,281.1 L698.4,281.2 L695.4,270.0 L692.4,258.7 L689.6,247.4 L687.0,236.0 L684.6,224.6 L682.4,213.1 L680.5,201.6 L678.8,190.0 L677.4,178.4 L676.4,166.7 L675.5,155.1 L674.9,143.4 L674.8,131.6 L674.7,119.9 L675.0,108.2 L675.4,96.5 L676.2,84.8 L677.0,73.1 L678.2,61.4 L679.8,49.8 L681.8,38.2 L684.0,26.7 L686.6,15.3 L689.6,3.9 L692.9,-7.3 L696.7,-18.4 L700.8,-29.3 L705.5,-40.0 Z"/><path d="M670.8,-40.0 L671.4,-33.3 L671.8,-26.7 L672.0,-20.1 L672.3,-13.6 L672.5,-7.1 L672.7,-0.6 L673.0,5.9 L673.3,12.3 L673.2,18.8 L673.8,25.2 L674.1,31.7 L674.5,38.2 L675.2,44.6 L675.9,51.0 L676.8,57.4 L677.9,63.8 L679.0,70.2 L680.0,76.6 L681.2,83.0 L682.6,89.4 L684.2,95.7 L685.7,102.0 L687.3,108.4 L689.1,114.7 L691.0,120.9 L693.1,127.2 L695.3,133.3 L697.9,139.4 L697.6,139.5 L694.7,133.6 L691.8,127.7 L688.9,121.7 L686.1,115.7 L683.4,109.7 L680.9,103.5 L678.5,97.3 L676.3,91.0 L674.3,84.7 L672.4,78.3 L670.5,71.9 L669.0,65.4 L667.7,58.9 L666.5,52.3 L665.4,45.8 L664.5,39.1 L663.7,32.5 L663.0,25.9 L662.8,19.2 L662.2,12.5 L662.3,5.8 L662.7,-0.8 L663.2,-7.5 L663.9,-14.1 L665.1,-20.7 L666.5,-27.2 L668.3,-33.7 L670.5,-40.0 Z"/><path d="M705.0,-40.0 L706.0,-34.2 L706.7,-28.3 L707.4,-22.5 L708.0,-16.7 L708.6,-10.9 L709.0,-5.2 L709.3,0.6 L709.6,6.4 L710.0,12.2 L710.2,18.0 L710.7,23.7 L711.0,29.5 L711.4,35.3 L711.9,41.1 L712.4,46.8 L712.8,52.6 L713.6,58.4 L713.9,64.2 L714.6,69.9 L715.3,75.7 L715.9,81.5 L716.6,87.3 L717.3,93.0 L718.0,98.8 L718.8,104.6 L719.7,110.4 L720.6,116.1 L721.8,121.8 L721.5,121.9 L720.1,116.2 L718.6,110.6 L717.1,104.9 L715.5,99.3 L714.1,93.6 L712.7,87.9 L711.3,82.2 L710.1,76.5 L709.0,70.8 L708.0,65.0 L706.8,59.2 L706.0,53.4 L705.1,47.6 L704.3,41.8 L703.7,36.0 L703.0,30.2 L702.4,24.3 L702.0,18.5 L701.5,12.6 L701.3,6.8 L701.0,0.9 L701.0,-4.9 L701.1,-10.8 L701.5,-16.7 L701.9,-22.5 L702.6,-28.4 L703.5,-34.2 L704.7,-40.0 Z"/></g><circle cx="217" cy="195" r="2.6" fill="#3d7467" opacity="0.23"/><circle cx="465" cy="173" r="3.4" fill="#3d7467" opacity="0.22"/><circle cx="105" cy="128" r="1.3" fill="#3d7467" opacity="0.22"/><circle cx="187" cy="479" r="2.6" fill="#3d7467" opacity="0.19"/><circle cx="543" cy="177" r="3.0" fill="#3d7467" opacity="0.13"/><circle cx="409" cy="87" r="1.6" fill="#3d7467" opacity="0.22"/><circle cx="446" cy="489" r="1.5" fill="#3d7467" opacity="0.25"/><circle cx="152" cy="382" r="3.1" fill="#3d7467" opacity="0.20"/><circle cx="251" cy="395" r="3.3" fill="#3d7467" opacity="0.23"/><circle cx="293" cy="130" r="3.2" fill="#3d7467" opacity="0.17"/></svg>